<?xml version="1.0" encoding="UTF-8"?>
<svg id="Layer_1" data-name="Layer 1" xmlns="http://www.w3.org/2000/svg" viewBox="0 0 42.52 49.68">
  <defs>
    <style>
      .cls-1 {
        fill: #bf872b;
        stroke-width: 0px;
      }
    </style>
  </defs>
  <path class="cls-1" d="M42.13.42c0-.12-.06-.23-.15-.31-.09-.08-.2-.11-.32-.11,0,0-40.68,0-40.8,0s-.23.03-.32.11c-.09.08-.15.19-.15.31,0,.07-.39,7.39-.39,16.78s.65,15,2.4,19.31c1.77,4.37,4.51,6.53,9.98,9.71,5.23,3.05,7.42,3.46,8.88,3.46s3.65-.41,8.88-3.46c5.47-3.18,8.21-5.34,9.98-9.71,1.75-4.31,2.4-9.54,2.4-19.31s-.38-16.7-.39-16.78ZM37.57,8.87c.78,0,1.42.63,1.42,1.42s-.63,1.42-1.42,1.42-1.42-.63-1.42-1.42.63-1.42,1.42-1.42ZM32.57,3.63c.78,0,1.42.63,1.42,1.42s-.63,1.42-1.42,1.42-1.42-.63-1.42-1.42.63-1.42,1.42-1.42ZM34.15,12.4c0,.58-.47,1.04-1.04,1.04s-1.04-.47-1.04-1.04.47-1.04,1.04-1.04,1.04.47,1.04,1.04ZM31.98,16.56c.78,0,1.42.63,1.42,1.42s-.63,1.42-1.42,1.42-1.42-.63-1.42-1.42.63-1.42,1.42-1.42ZM26.65,8.2c.78,0,1.42.63,1.42,1.42s-.63,1.42-1.42,1.42-1.42-.63-1.42-1.42.63-1.42,1.42-1.42ZM25.11,45.96c-1.23-.64-2.46-1.27-3.85-1.25-1.39.02-2.61.64-3.83,1.27-.87-.4-1.84-.9-2.93-1.52,2.34-.53,4.28-2.48,6.76-2.51,2.49-.03,4.45,1.99,6.81,2.47-1.11.63-2.09,1.14-2.96,1.54ZM35.22,39.45s-.05.05-.09.07c-.29.14-1.82.9-2.54,1.25-1.38.66-2.79,1.23-4.45.92-2.39-.45-4.37-2.51-6.88-2.48-2.75.03-4.82,2.4-7.51,2.62-1.4.12-2.67-.44-3.89-1.06-.72-.36-2.15-1.05-2.43-1.19-.03-.02-.06-.04-.09-.06-.85-.88-1.55-1.85-2.11-2.97.43-.02.87,0,1.34.1,2.47.51,4.53,2.65,7.18,2.42,2.69-.22,4.77-2.59,7.51-2.62,2.51-.03,4.49,2.03,6.88,2.48,2.72.51,4.68-1.29,7.14-2.11.71-.24,1.36-.31,1.99-.27-.54,1.08-1.23,2.05-2.05,2.9ZM38.29,33.95c-.93-.23-1.92-.26-3.02.1-2.46.83-4.41,2.62-7.14,2.11-2.39-.45-4.37-2.51-6.88-2.48-2.75.03-4.82,2.4-7.51,2.62-2.65.22-4.71-1.92-7.18-2.42-.86-.18-1.63-.13-2.37.05-.25-.8-.47-1.64-.66-2.56.93-.32,1.91-.47,3.03-.25,2.47.51,4.53,2.65,7.18,2.42,2.69-.22,4.77-2.59,7.51-2.62,2.51-.03,4.49,2.03,6.88,2.48,2.72.51,4.68-1.29,7.14-2.11,1.36-.46,2.54-.3,3.68.09-.19.92-.41,1.76-.66,2.56ZM8.57,29.09c1.37-.43,2.6-.82,3.69-1.16,3.41-1.06,5.56-1.68,6.9-2.06.79-.22,1.31-.35,1.64-.43.17-.04.29-.06.38-.08.07.01.27.05.39.08.4.1,1,.24,2.3.6,1.36.38,3.35.96,6.25,1.85,1.14.35,2.41.74,3.85,1.19-1.89.87-3.59,1.99-5.81,1.57-2.39-.45-4.37-2.51-6.88-2.48-2.75.03-4.82,2.4-7.51,2.62-1.91.16-3.52-.91-5.2-1.71ZM37.81,27.41c-.42-.13-15.12-4.81-16.65-4.81s-16.01,4.68-16.43,4.81c-.42.13-1.82.69-1.82-.5s1.94-1.77,7.61-4.48c5.67-2.71,9.26-4.64,10.64-4.64s5.19,1.92,10.86,4.64c5.67,2.71,7.61,3.29,7.61,4.48s-1.39.62-1.82.5Z"/>
</svg>