<?xml version="1.0" encoding="UTF-8"?>
<svg id="Layer_1" data-name="Layer 1" xmlns="http://www.w3.org/2000/svg" viewBox="0 0 226.7 72.89">
  <defs>
    <style>
      .cls-1 {
        fill: #bf872b;
      }

      .cls-1, .cls-2 {
        stroke-width: 0px;
      }

      .cls-2 {
        fill: #000;
      }
    </style>
  </defs>
  <g>
    <path class="cls-2" d="M106.42,19.57L113.31.53h2.75l6.89,19.04h-2.49l-1.87-5.22h-7.78l-1.91,5.22h-2.48ZM111.43,12.12h6.52l-3.24-9.18-3.28,9.18Z"/>
    <path class="cls-2" d="M130.05,19.83c-.71,0-1.38-.11-2.01-.31s-1.18-.49-1.67-.88c-.48-.39-.86-.87-1.14-1.44-.28-.57-.41-1.24-.41-2.01V5.95h2.44v8.99c0,.89.27,1.61.82,2.16.55.55,1.38.83,2.48.83,1,0,1.81-.26,2.42-.78s.92-1.3.92-2.34V5.95h2.42v13.62h-1.94l-.25-2.61c-.17.68-.45,1.24-.85,1.66-.4.42-.88.73-1.44.93-.56.2-1.16.29-1.8.28Z"/>
    <path class="cls-2" d="M144.69,19.83c-.95,0-1.83-.15-2.64-.44-.81-.29-1.49-.76-2.02-1.38-.54-.63-.87-1.43-1.01-2.4h2.21c.12.54.34.98.67,1.34.32.36.72.62,1.21.8.48.18,1.01.27,1.58.27.91,0,1.65-.17,2.21-.51.56-.34.84-.87.84-1.58,0-.5-.15-.9-.44-1.21s-.75-.52-1.36-.67l-2.82-.7c-1.1-.26-1.98-.68-2.63-1.24-.66-.56-.99-1.35-.99-2.36,0-.8.18-1.5.57-2.11.39-.61.97-1.08,1.74-1.44.77-.35,1.73-.53,2.88-.53,1.47,0,2.67.33,3.58.99.91.66,1.38,1.64,1.42,2.92h-2.15c-.09-.65-.38-1.17-.88-1.55s-1.16-.57-1.99-.57-1.58.17-2.12.52c-.54.35-.82.88-.82,1.61,0,.48.19.86.58,1.14.39.28.96.51,1.71.69l2.73.68c.63.17,1.15.39,1.56.66.41.27.73.57.97.91.24.33.41.68.51,1.05.1.36.15.71.15,1.05,0,.83-.21,1.55-.63,2.15-.42.6-1.01,1.07-1.79,1.4-.78.33-1.72.49-2.82.49Z"/>
    <path class="cls-2" d="M159.7,7.73h-3.07v8.47c0,.48.05.84.15,1.06.1.22.27.37.51.43.24.06.57.09.99.09h1.49v1.63c-.17.06-.42.11-.76.16-.34.04-.76.07-1.26.07-.94,0-1.67-.13-2.19-.38-.52-.25-.88-.63-1.09-1.13-.21-.5-.31-1.11-.31-1.84V7.73h-2.21v-1.78h2.28l.59-3.96h1.79v3.95h3.07v1.79Z"/>
    <path class="cls-2" d="M162.93,19.57V5.95h2.32v2.62c.23-.65.55-1.19.96-1.61.41-.43.88-.74,1.42-.95.53-.21,1.08-.32,1.65-.32.2,0,.4.01.59.04.19.03.34.07.45.13v2.36c-.13-.06-.3-.1-.51-.12s-.38-.03-.52-.03c-.54-.04-1.05,0-1.53.1-.47.1-.89.27-1.25.52s-.64.57-.85.97c-.21.4-.31.88-.31,1.46v8.47h-2.42Z"/>
    <path class="cls-2" d="M176.3,19.83c-.88,0-1.66-.16-2.33-.47-.68-.31-1.21-.76-1.59-1.35-.38-.59-.57-1.3-.57-2.13,0-1.51.53-2.63,1.58-3.37s2.74-1.13,5.07-1.19l2.44-.07v-1.07c0-.83-.25-1.5-.75-1.98-.5-.49-1.28-.73-2.33-.73-.78,0-1.47.19-2.06.55-.59.36-.98.95-1.15,1.76h-2.15c.05-.89.3-1.64.75-2.25.45-.61,1.07-1.07,1.88-1.39s1.75-.47,2.85-.47c1.19,0,2.17.17,2.96.5s1.37.83,1.76,1.47c.39.65.59,1.45.59,2.4v9.51h-2.08l-.17-2.56c-.53,1.06-1.2,1.8-2.01,2.21-.81.41-1.71.61-2.68.61ZM177.04,18.08c.46,0,.91-.08,1.36-.25.45-.17.87-.39,1.25-.68.38-.28.68-.61.9-.96s.34-.72.35-1.1v-2.33l-2.03.04c-1.04.02-1.9.12-2.6.32-.7.19-1.22.5-1.57.91-.35.41-.52.95-.52,1.62,0,.76.26,1.36.8,1.79.53.43,1.22.65,2.06.65Z"/>
    <path class="cls-2" d="M190.37,19.74c-.74,0-1.33-.1-1.79-.3-.45-.2-.8-.47-1.04-.82-.24-.34-.4-.74-.49-1.18-.08-.44-.13-.9-.13-1.38V0h2.4v15.83c0,.68.13,1.2.4,1.54.27.34.64.53,1.13.57h.74v1.59c-.2.06-.41.11-.63.15-.22.04-.42.06-.59.06Z"/>
    <path class="cls-2" d="M197.06.54v2.53h-2.49V.54h2.49ZM197.01,5.95v13.62h-2.36V5.95h2.36Z"/>
    <path class="cls-2" d="M204.79,19.83c-.88,0-1.66-.16-2.33-.47-.68-.31-1.21-.76-1.59-1.35-.38-.59-.57-1.3-.57-2.13,0-1.51.53-2.63,1.58-3.37s2.74-1.13,5.07-1.19l2.44-.07v-1.07c0-.83-.25-1.5-.75-1.98-.5-.49-1.28-.73-2.33-.73-.78,0-1.47.19-2.06.55-.59.36-.98.95-1.15,1.76h-2.15c.05-.89.3-1.64.75-2.25.45-.61,1.07-1.07,1.88-1.39s1.75-.47,2.85-.47c1.19,0,2.17.17,2.96.5s1.37.83,1.76,1.47c.39.65.59,1.45.59,2.4v9.51h-2.08l-.17-2.56c-.53,1.06-1.2,1.8-2.01,2.21-.81.41-1.71.61-2.68.61ZM205.53,18.08c.46,0,.91-.08,1.36-.25.45-.17.87-.39,1.25-.68.38-.28.68-.61.9-.96s.34-.72.35-1.1v-2.33l-2.03.04c-1.04.02-1.9.12-2.6.32-.7.19-1.22.5-1.57.91-.35.41-.52.95-.52,1.62,0,.76.26,1.36.8,1.79.53.43,1.22.65,2.06.65Z"/>
    <path class="cls-2" d="M215.31,19.57V5.95h2.36v1.98c.22-.38.52-.73.92-1.07.39-.33.86-.6,1.42-.8.56-.2,1.2-.3,1.93-.3.86,0,1.65.17,2.38.51.72.34,1.3.88,1.74,1.6.43.72.65,1.66.65,2.8v8.9h-2.44v-8.67c0-1.06-.28-1.85-.84-2.36-.56-.51-1.28-.77-2.17-.77-.62,0-1.19.1-1.73.3-.53.2-.97.5-1.3.9-.33.4-.5.9-.5,1.51v9.1h-2.42Z"/>
    <path class="cls-2" d="M119.18,25.01h2.44v19.04h-2.17l-10.22-15.01v15.01h-2.44v-19.04h2.33l10.06,14.8v-14.8Z"/>
    <path class="cls-2" d="M129.56,44.32c-.88,0-1.66-.16-2.33-.47-.68-.31-1.21-.76-1.59-1.35-.38-.59-.57-1.3-.57-2.13,0-1.51.53-2.63,1.58-3.37s2.74-1.13,5.07-1.19l2.44-.07v-1.07c0-.83-.25-1.5-.75-1.98-.5-.49-1.28-.73-2.33-.73-.78,0-1.47.19-2.06.55-.59.36-.98.95-1.15,1.76h-2.15c.05-.89.3-1.64.75-2.25.45-.61,1.07-1.07,1.88-1.39.8-.32,1.75-.47,2.85-.47,1.19,0,2.17.17,2.96.5.79.33,1.37.83,1.77,1.47.39.65.59,1.45.59,2.4v9.51h-2.08l-.17-2.55c-.53,1.06-1.2,1.8-2.01,2.21-.81.41-1.71.61-2.68.61ZM130.3,42.57c.46,0,.91-.08,1.36-.25.45-.17.87-.39,1.24-.68.38-.29.68-.61.9-.96.22-.36.34-.72.35-1.1v-2.33l-2.03.04c-1.04.02-1.9.12-2.6.32-.7.19-1.22.5-1.57.91-.35.41-.52.95-.52,1.62,0,.76.26,1.36.8,1.79.53.43,1.22.65,2.06.65Z"/>
    <path class="cls-2" d="M146.42,32.22h-3.07v8.47c0,.48.05.84.15,1.06.1.22.27.37.51.43.24.06.57.09.99.09h1.49v1.63c-.17.06-.42.11-.76.16-.34.04-.76.07-1.26.07-.94,0-1.67-.13-2.19-.38-.52-.25-.88-.63-1.09-1.13-.21-.5-.31-1.11-.31-1.84v-8.55h-2.21v-1.78h2.28l.59-3.96h1.79v3.95h3.07v1.79Z"/>
    <path class="cls-2" d="M152.35,25.03v2.53h-2.49v-2.53h2.49ZM152.29,30.44v13.62h-2.36v-13.62h2.36Z"/>
    <path class="cls-2" d="M161.72,44.32c-1.26,0-2.35-.27-3.29-.81-.94-.54-1.67-1.33-2.19-2.38-.52-1.04-.78-2.32-.78-3.83,0-1.42.24-2.67.72-3.74.48-1.07,1.19-1.9,2.13-2.5s2.07-.89,3.4-.89c1.26,0,2.35.27,3.27.82s1.64,1.35,2.15,2.42c.51,1.06.76,2.36.76,3.89,0,1.39-.23,2.61-.7,3.66s-1.16,1.88-2.08,2.47c-.92.59-2.05.89-3.4.89ZM161.72,42.4c.82,0,1.51-.21,2.07-.62.56-.41.99-1,1.28-1.78.29-.77.44-1.69.44-2.75,0-.97-.13-1.85-.38-2.63-.25-.78-.66-1.39-1.22-1.85-.56-.46-1.28-.68-2.18-.68-.83,0-1.52.2-2.09.61-.57.41-1,1-1.3,1.77s-.44,1.7-.44,2.78c0,.96.13,1.83.4,2.61.26.78.68,1.4,1.24,1.86s1.29.68,2.2.68Z"/>
    <path class="cls-2" d="M170.85,44.06v-13.62h2.36v1.98c.22-.38.52-.73.92-1.07.39-.33.86-.6,1.42-.8.56-.2,1.2-.3,1.93-.3.86,0,1.65.17,2.38.51.72.34,1.3.88,1.74,1.6.43.72.65,1.66.65,2.8v8.9h-2.44v-8.67c0-1.06-.28-1.85-.84-2.36-.56-.51-1.28-.77-2.17-.77-.62,0-1.19.1-1.73.3-.53.2-.97.5-1.3.9-.33.4-.5.9-.5,1.51v9.1h-2.42Z"/>
    <path class="cls-2" d="M189.51,44.32c-.88,0-1.66-.16-2.33-.47-.68-.31-1.21-.76-1.59-1.35-.38-.59-.57-1.3-.57-2.13,0-1.51.53-2.63,1.58-3.37s2.74-1.13,5.07-1.19l2.44-.07v-1.07c0-.83-.25-1.5-.75-1.98-.5-.49-1.28-.73-2.33-.73-.78,0-1.47.19-2.06.55-.59.36-.98.95-1.15,1.76h-2.15c.05-.89.3-1.64.75-2.25.45-.61,1.07-1.07,1.88-1.39s1.75-.47,2.85-.47c1.19,0,2.17.17,2.96.5s1.37.83,1.76,1.47c.39.65.59,1.45.59,2.4v9.51h-2.08l-.17-2.55c-.53,1.06-1.2,1.8-2.01,2.21-.81.41-1.71.61-2.68.61ZM190.25,42.57c.46,0,.91-.08,1.36-.25.45-.17.87-.39,1.25-.68.38-.29.68-.61.9-.96.22-.36.34-.72.35-1.1v-2.33l-2.03.04c-1.04.02-1.9.12-2.6.32-.7.19-1.22.5-1.57.91-.35.41-.52.95-.52,1.62,0,.76.26,1.36.8,1.79.53.43,1.22.65,2.06.65Z"/>
    <path class="cls-2" d="M203.58,44.23c-.74,0-1.33-.1-1.79-.3-.45-.2-.8-.47-1.04-.82-.24-.34-.4-.74-.49-1.18-.08-.44-.13-.9-.13-1.38v-16.07h2.4v15.83c0,.69.13,1.2.4,1.54s.64.53,1.13.57h.74v1.59c-.2.06-.41.11-.63.15-.22.04-.42.06-.59.06Z"/>
    <path class="cls-2" d="M120.71,61.96c0,1.47-.24,2.71-.72,3.73s-1.24,1.79-2.26,2.32c-1.02.53-2.35.8-3.98.8s-2.99-.27-4.01-.82c-1.02-.54-1.77-1.34-2.24-2.4s-.7-2.35-.7-3.89v-12.21h2.53v12.58c0,1.54.38,2.69,1.15,3.45.76.76,1.86,1.15,3.28,1.15.96,0,1.77-.17,2.44-.5.67-.33,1.19-.84,1.54-1.52.36-.68.53-1.54.53-2.57v-12.58h2.45v12.46Z"/>
    <path class="cls-2" d="M124.27,68.55v-13.62h2.36v1.97c.22-.38.52-.73.92-1.07.39-.33.86-.6,1.42-.8.56-.2,1.2-.3,1.93-.3.86,0,1.65.17,2.38.51.72.34,1.3.87,1.74,1.6.43.72.65,1.66.65,2.8v8.9h-2.44v-8.67c0-1.06-.28-1.85-.83-2.36-.56-.51-1.28-.77-2.17-.77-.61,0-1.19.1-1.73.3-.53.2-.97.5-1.3.9-.33.4-.5.9-.5,1.51v9.1h-2.42Z"/>
    <path class="cls-2" d="M141.81,49.51v2.53h-2.49v-2.53h2.49ZM141.76,54.93v13.62h-2.36v-13.62h2.36Z"/>
    <path class="cls-2" d="M156.42,54.93l-4.91,13.62h-2.21l-4.93-13.62h2.29l3.62,10.56h.22l3.64-10.56h2.28Z"/>
    <path class="cls-2" d="M160.01,62.3c0,.86.14,1.64.43,2.34.28.7.72,1.25,1.3,1.67.58.41,1.31.62,2.19.62s1.62-.2,2.25-.61c.63-.4,1.03-.99,1.21-1.75h2.3c-.17.92-.54,1.7-1.11,2.33s-1.26,1.11-2.07,1.43c-.81.32-1.65.48-2.53.48-1.27,0-2.39-.28-3.36-.83-.97-.55-1.72-1.35-2.27-2.38-.54-1.04-.82-2.28-.82-3.73s.25-2.69.74-3.77c.49-1.08,1.21-1.92,2.14-2.53.94-.61,2.06-.91,3.38-.91s2.37.28,3.25.83c.89.55,1.56,1.33,2.02,2.34.46,1.01.69,2.2.69,3.58v.9h-9.76ZM160.02,60.66h7.4c0-.78-.13-1.49-.4-2.11-.26-.63-.66-1.12-1.21-1.49-.54-.36-1.22-.55-2.03-.55s-1.56.2-2.11.61-.97.93-1.25,1.57c-.28.64-.41,1.29-.4,1.97Z"/>
    <path class="cls-2" d="M172.84,68.55v-13.62h2.32v2.62c.23-.65.55-1.19.96-1.61.41-.43.88-.74,1.42-.96.53-.21,1.08-.32,1.65-.32.2,0,.4.01.59.04.19.03.34.07.45.13v2.36c-.13-.06-.3-.1-.51-.13-.21-.02-.38-.03-.52-.03-.54-.04-1.05,0-1.53.1-.47.1-.89.27-1.25.52-.36.25-.64.57-.85.97-.21.4-.31.88-.31,1.46v8.47h-2.42Z"/>
    <path class="cls-2" d="M187.52,68.81c-.95,0-1.83-.15-2.64-.44-.81-.29-1.49-.76-2.02-1.38-.54-.63-.87-1.43-1.01-2.4h2.21c.12.54.34.98.67,1.34.32.36.72.62,1.21.8.48.18,1.01.27,1.58.27.91,0,1.65-.17,2.21-.51.56-.34.84-.87.84-1.58,0-.5-.15-.9-.44-1.21s-.75-.52-1.36-.66l-2.82-.7c-1.1-.26-1.98-.68-2.63-1.24s-.99-1.35-.99-2.36c0-.8.18-1.5.57-2.11.39-.61.97-1.08,1.74-1.44.77-.35,1.73-.53,2.88-.53,1.47,0,2.67.33,3.58.99.91.66,1.38,1.64,1.42,2.92h-2.15c-.09-.65-.38-1.16-.88-1.55s-1.16-.57-1.99-.57-1.58.17-2.12.52c-.54.35-.82.88-.82,1.61,0,.48.19.86.58,1.14.39.28.96.51,1.71.69l2.73.68c.63.17,1.15.39,1.56.66.41.27.73.57.97.91.24.33.41.68.51,1.05.1.36.15.71.15,1.05,0,.83-.21,1.55-.63,2.15-.42.6-1.01,1.07-1.79,1.4-.78.33-1.72.49-2.82.49Z"/>
    <path class="cls-2" d="M198.59,49.51v2.53h-2.49v-2.53h2.49ZM198.53,54.93v13.62h-2.36v-13.62h2.36Z"/>
    <path class="cls-2" d="M209.38,56.71h-3.07v8.47c0,.48.05.84.15,1.06.1.22.27.37.51.43.24.06.57.09.99.09h1.49v1.63c-.17.06-.42.11-.76.16-.34.04-.76.07-1.26.07-.94,0-1.67-.13-2.19-.38-.52-.25-.88-.63-1.09-1.13-.21-.5-.31-1.11-.31-1.84v-8.55h-2.21v-1.78h2.28l.59-3.96h1.79v3.95h3.07v1.79Z"/>
    <path class="cls-2" d="M214.06,72.89c-.8,0-1.5-.11-2.09-.34v-1.58l1.38.03c.51.02.93-.02,1.26-.11.33-.09.6-.21.8-.36.2-.15.36-.32.47-.5.11-.18.2-.36.27-.53l.47-1.29-5.32-13.29h2.46l4.02,10.51,3.99-10.51h2.38l-5.74,14.64c-.35.86-.74,1.53-1.18,2.01s-.92.82-1.45,1.01c-.53.19-1.11.29-1.73.29Z"/>
  </g>
  <g>
    <path class="cls-1" d="M86.93,55.05c-2.17-2.17-4.94-4.28-8.4-5.24.26-.52,3.61-6.58,3.61-9.31,0-.92-.39-2.08-1.55-3.18-.96-.92-5.09-3.2-5.09-3.2-1.12-.62-2.39-.67-3.68-.13-2.39.99-4.31,3.7-4.73,5.19-.69,2.48.48,3.27.61,3.35l2.61,1.63-2.9,6.89c-4.45,1.39-18.95,8.68-23.88,8.68s-19.43-7.29-23.88-8.68l-2.9-6.89,2.61-1.63c.13-.08,1.3-.87.61-3.35-.42-1.49-2.34-4.19-4.73-5.19-1.29-.54-2.57-.49-3.68.13,0,0-4.13,2.28-5.09,3.2-1.16,1.1-1.55,2.27-1.55,3.18,0,2.73,3.36,8.78,3.62,9.31-3.46.96-6.23,3.07-8.4,5.24-.16.16-.19.41-.07.61.01.02,1.45,2.42,1.91,4.06.5,1.8.28,5.52.28,5.52.05,1.7,2.75,3.46,5.95,3.46,4.46,0,4.7-2.99,11.4-6.27,1.4.67,15.01,7.81,23.93,7.81s22.53-7.14,23.93-7.81c6.7,3.28,6.93,6.27,11.4,6.27,3.2,0,5.9-1.76,5.95-3.46,0,0-.22-3.73.28-5.52.46-1.65,1.89-4.04,1.91-4.06.12-.2.09-.45-.07-.61ZM68.24,41.68s-.67-.5-.18-2.24c.36-1.3,2.16-3.71,4.15-4.54,1.01-.42,1.96-.39,2.82.08,0,0,3.51,1.94,4.55,2.77-3-.12-7.18,4.44-6.87,6.71l-4.47-2.78ZM76.25,43.21c.15,1.35-1.35,2.44-2.14,2.12-.69-.28-.54-1.91.43-3.16l1.71,1.04ZM71.18,44.67c1.67.92,2.24,1.71,3.37,1.71,2.1,0,3.06-2.76,2.59-3.8l-1.98-1.2c1.33-1.53,3.2-2.66,4.33-2.65.98.02,1.67.65,1.67,1.76,0,1.5-.9,3.58-2.75,7.31-.29.58-.58,1.17-.88,1.78-.68-.12-1.41-.18-2.25-.18-1.98,0-4.22.48-6.61,1.22l2.51-5.95ZM12.05,34.98c.85-.48,1.8-.51,2.82-.08,1.99.83,3.79,3.24,4.15,4.54.48,1.74-.18,2.24-.19,2.24l-4.47,2.78c.32-2.26-3.86-6.83-6.87-6.71,1.04-.83,4.55-2.77,4.55-2.77ZM12.97,45.33c-.8.33-2.29-.77-2.14-2.12l1.71-1.04c.97,1.24,1.12,2.87.43,3.16ZM5.92,40.5c0-1.11.69-1.75,1.67-1.76,1.14-.02,3,1.11,4.33,2.65l-1.98,1.2c-.47,1.04.49,3.8,2.59,3.8,1.13,0,1.7-.79,3.37-1.71l2.5,5.95c-2.38-.74-4.63-1.22-6.61-1.22-.85,0-1.57.06-2.25.18-.29-.6-.59-1.2-.87-1.78-1.86-3.74-2.75-5.82-2.75-7.31ZM8.12,67.7c-2.39,0-4.86-1.32-4.87-2.5,0-.92,2.66-4.74,9.23-4.92.27.86.67,2.33.67,3.54,0,1.07-1.1,3.9-5.03,3.89ZM14,64.73c.34-1.15-.02-2.85-.47-4.38,1.26.18,2.94.72,4.92,1.57-1.82.98-3.34,1.99-4.45,2.81ZM73.07,64.73c-1.11-.82-2.63-1.83-4.45-2.81,1.98-.85,3.66-1.39,4.92-1.57-.45,1.53-.81,3.23-.47,4.38ZM78.96,67.7c-3.93.01-5.03-2.81-5.03-3.89,0-1.21.41-2.68.67-3.54,6.56.18,9.23,4,9.23,4.92,0,1.19-2.48,2.5-4.87,2.5ZM83.76,63.01c-1.58-1.8-4.86-3.74-9.34-3.74-5.78,0-19.62,9.98-30.89,9.98s-25.11-9.98-30.89-9.98c-4.48,0-7.75,1.94-9.33,3.74-.03-3.42-.65-4.86-2.19-7.53,1.94-1.82,5.65-5.09,10.68-5.09,8.34,0,24.76,10.31,31.74,10.31s23.39-10.31,31.74-10.31c5.03,0,8.74,3.27,10.68,5.09-1.54,2.67-2.16,4.11-2.19,7.53Z"/>
    <g>
      <path class="cls-1" d="M4.81,58.78c.13-.07.2-.12.22-.14,0-.01.02-.03.02-.04,0-.02,0-.04-.02-.08-.02-.05-.07-.18-.16-.38-.05-.11-.12-.26-.21-.44l-.32-.65-.3-.58c-.05-.1-.08-.16-.11-.19-.02-.03-.04-.04-.06-.05-.02-.01-.04-.01-.07,0-.03,0-.11.03-.23.08l-.08-.17c.15-.06.26-.11.33-.14l.25-.13.15-.09c.41.25.91.52,1.47.83.41.22.74.39,1,.5l-.23-.47c-.36-.72-.57-1.15-.65-1.27-.03-.05-.06-.07-.08-.08-.04-.01-.13.02-.29.09l-.08-.17c.14-.06.27-.12.39-.18.11-.06.26-.13.43-.23l.08.17c-.14.07-.21.13-.23.16,0,.01,0,.02,0,.04.02.08.08.24.2.48.11.24.2.42.25.54.44.9.72,1.43.83,1.62v.03c-.12.03-.23.06-.33.09-.61-.3-1.49-.78-2.65-1.41l.5,1.01c.1.21.21.42.33.65.08.15.13.25.16.27.01.01.03.02.04.03.02,0,.04,0,.07,0,.08-.03.14-.05.17-.06,0,0,.02,0,.03-.02l.08.16c-.22.1-.34.16-.37.18-.11.05-.26.13-.45.24l-.08-.17Z"/>
      <path class="cls-1" d="M7.43,57.76l-.05-.18c.1-.04.15-.06.17-.07.02-.01.03-.03.04-.04,0-.02.02-.04.02-.08,0-.03.02-.16.03-.37,0-.1.02-.29.03-.58l.08-1.53.02-.54.26-.07,1.47,2.03.2.26.13.18s.04.04.05.05c.01,0,.03.01.05.02.02,0,.05,0,.11-.02.02,0,.05,0,.08-.01l.05.18-.52.13-.64.2-.05-.18c.15-.05.23-.08.24-.1.02-.02.02-.04.01-.07-.01-.04-.04-.09-.09-.17l-.29-.43-.95.27v.28c-.01.22,0,.35,0,.4,0,.03.03.06.05.07.04.01.13,0,.27-.04l.05.18-.43.11-.42.14ZM7.91,56.36c.12-.03.25-.06.4-.11.14-.04.27-.08.38-.11l-.71-1.01-.06,1.23Z"/>
      <path class="cls-1" d="M10.28,56.92l-.02-.18c.15-.02.24-.05.27-.07.03-.02.04-.05.05-.1,0-.07,0-.26-.05-.58l-.16-1.34c-.04-.37-.07-.57-.08-.61l-.27.03c-.14.02-.26.03-.36.06-.04,0-.06.02-.07.03,0,0-.01.04-.01.08,0,.11,0,.22.01.35l-.16.02c-.04-.3-.06-.48-.07-.52-.01-.07-.03-.13-.04-.21v-.02c.07,0,.14,0,.21,0,.11,0,.32-.03.63-.07l.77-.09c.32-.04.53-.06.64-.08.06,0,.12-.02.17-.04l.02.02c0,.09,0,.17,0,.24,0,.01.02.18.05.49l-.16.02c-.02-.12-.04-.23-.06-.33-.01-.05-.03-.08-.04-.09,0,0-.03,0-.06,0-.11,0-.23,0-.38.03l-.27.03c0,.05.02.26.07.61l.16,1.34c.04.32.07.51.09.58.01.04.04.07.07.08.03.02.12.02.28,0l.02.18c-.25.01-.45.03-.62.05-.18.02-.39.05-.62.09Z"/>
      <path class="cls-1" d="M12.01,53.76l.02-.18.62.07.26.02h.26s.07.02.07.02l-.02.19c-.14-.01-.23,0-.27.02-.02.01-.03.04-.04.07-.03.09-.05.3-.08.61l-.04.52-.02.26c-.02.27-.04.44-.04.51,0,.14.02.26.06.35.04.09.11.17.2.23.1.06.22.1.37.11.18.02.32,0,.43-.07.11-.06.19-.15.25-.26.05-.11.1-.32.12-.64l.04-.46c.03-.4.05-.64.06-.72.01-.19.01-.3,0-.34,0-.02-.02-.04-.04-.06-.04-.03-.13-.05-.27-.07v-.19c.24.03.38.05.42.05.01,0,.03,0,.05,0l.42.02-.02.19c-.12-.01-.19,0-.23.01-.02.01-.03.03-.04.07-.01.03-.03.18-.07.45-.03.27-.05.48-.07.64l-.04.53c-.01.13-.03.27-.06.41-.03.14-.07.26-.13.36-.06.1-.14.18-.24.26-.1.07-.21.13-.34.16-.13.03-.28.04-.44.03-.19-.02-.37-.06-.53-.14-.12-.06-.21-.12-.28-.21-.07-.08-.12-.17-.16-.27-.03-.1-.05-.19-.05-.28,0-.05,0-.2.03-.44l.04-.43.05-.57c.02-.21.03-.4.04-.57,0-.07,0-.11-.01-.15,0-.02-.02-.04-.04-.06l-.25-.05Z"/>
      <path class="cls-1" d="M15.09,54.05l.05-.18s.13.04.29.09c.08.03.2.06.35.1.13.03.24.06.34.08.15.03.28.06.38.09.19.05.33.1.42.16.09.06.15.15.19.27.04.12.04.26,0,.4-.05.18-.13.32-.26.44-.13.12-.3.2-.52.23.01.07.03.15.05.23.02.08.03.13.04.14,0,.02,0,.03.01.05l.16.58c.04.15.06.24.07.25.06.17.09.27.1.3.01.03.03.05.05.07.02.02.05.03.11.05l-.05.19c-.19-.06-.33-.09-.41-.12-.1-.03-.2-.05-.3-.07,0-.03,0-.08-.01-.14l-.2-.87c-.06-.25-.11-.45-.16-.6-.02-.07-.05-.13-.08-.17l.04-.07c.15.04.26.05.35.03.09-.02.17-.08.25-.17.08-.09.14-.21.17-.34.03-.13.04-.25,0-.35-.03-.1-.08-.18-.16-.24-.05-.03-.14-.07-.27-.1-.06-.02-.12-.03-.18-.03-.02.05-.05.17-.1.35-.11.41-.19.68-.22.82-.06.22-.11.45-.17.7-.07.3-.11.47-.12.51-.02.08-.02.14-.02.16,0,.01,0,.03.02.04,0,.01.03.02.05.04.02.01.09.04.21.07l-.05.19c-.21-.06-.42-.12-.64-.18-.19-.05-.37-.09-.54-.12l.05-.19c.14.03.23.04.26.04.02,0,.03,0,.04-.01,0,0,.02-.03.03-.06.02-.05.05-.14.08-.25l.18-.63.21-.81.11-.46c.04-.18.07-.29.06-.33,0-.02,0-.03-.02-.04-.02-.03-.11-.06-.26-.11Z"/>
      <path class="cls-1" d="M16.96,57.62l.07-.17c.1.03.16.04.18.04.02,0,.04,0,.06-.01.02,0,.04-.02.06-.05.03-.02.11-.12.24-.28.06-.08.19-.23.37-.45l.98-1.18.34-.42.25.1-.02,2.5v.33s0,.22,0,.22c0,.03,0,.05.01.07,0,.02.02.03.03.04s.04.03.1.05c.02.01.04.02.08.04l-.07.17-.49-.2-.63-.22.07-.18c.15.05.23.07.26.06.02,0,.04-.02.05-.05.01-.04.02-.1.02-.19l.02-.52-.92-.35-.17.22c-.13.17-.21.28-.22.33-.01.03-.01.06,0,.08.02.03.1.07.24.13l-.07.18-.41-.17-.42-.14ZM18.18,56.77c.11.05.24.1.38.15.14.05.26.1.37.13l.02-1.23-.78.95Z"/>
      <path class="cls-1" d="M19.69,58.64l.08-.17c.14.05.22.07.25.07.02,0,.03,0,.05-.01.02-.01.04-.04.05-.07.04-.07.13-.24.25-.5.06-.13.16-.34.3-.65.12-.28.23-.53.32-.74.09-.22.14-.35.15-.39,0-.02,0-.04,0-.05,0-.02-.02-.03-.05-.05-.07-.05-.14-.09-.2-.12l.08-.17c.24.12.4.2.49.24.12.05.24.1.37.15l-.03.48-.02.36-.05,1.6c.24-.22.42-.39.55-.51l.49-.47c.27-.26.44-.42.5-.48.06-.06.14-.14.22-.23.15.08.24.13.29.15l.53.22-.08.17h-.02c-.12-.07-.2-.08-.25-.06-.05.02-.09.08-.13.17-.05.11-.09.2-.12.26l-.27.57-.32.72c-.08.18-.12.28-.14.31-.07.18-.11.29-.12.33,0,.02,0,.04,0,.06,0,.02.01.03.03.04.02.01.09.06.21.12l-.08.18-.55-.27-.55-.23.08-.17c.15.06.23.09.26.08.03,0,.06-.03.09-.08.03-.05.11-.22.24-.5l.67-1.5-.84.78-.41.39c-.11.1-.26.25-.46.45-.12.12-.22.22-.29.29l-.12-.05c0-.13.02-.32.03-.55.02-.4.03-.7.04-.9l.04-1.31-.45,1.01c-.08.17-.16.37-.26.6-.1.23-.15.37-.16.4,0,.03-.01.06,0,.08,0,.02.02.04.04.06.02.02.09.06.2.12l-.08.17c-.13-.07-.26-.13-.39-.19-.18-.08-.32-.14-.43-.18Z"/>
      <path class="cls-1" d="M25.32,57.95l.08-.17.51.26.78.35c.15.07.26.15.33.22.07.08.11.18.13.31.02.13-.01.27-.08.42-.07.15-.17.28-.29.38-.12.1-.27.17-.44.19s-.33,0-.47-.07c-.04-.02-.07-.04-.1-.06-.03-.02-.06-.05-.1-.07,0-.04,0-.1,0-.17l.06-.03s.04.04.06.06c.02.02.04.03.06.04.11.05.23.05.34,0,.12-.06.22-.18.3-.35.09-.19.12-.34.08-.47-.03-.13-.12-.23-.25-.29-.06-.03-.14-.06-.23-.08-.05.08-.11.2-.19.37l-.19.4-.36.77c-.09.19-.18.39-.27.59-.05.12-.08.2-.09.23,0,.02,0,.03,0,.05,0,.02.02.03.05.05l.22.13-.08.18c-.29-.15-.51-.26-.66-.33-.16-.08-.32-.15-.47-.21l.08-.18c.13.06.22.08.26.08.01,0,.03,0,.04-.02.02-.02.05-.06.09-.14.12-.21.24-.45.36-.72l.34-.72.17-.39c.08-.17.12-.27.14-.31.02-.04.03-.07.03-.1,0-.01,0-.03-.01-.04,0-.01-.02-.03-.05-.05l-.18-.1Z"/>
      <path class="cls-1" d="M27.42,58.95l.08-.17s.12.06.27.14c.08.04.19.09.33.16.12.06.23.1.32.14.15.06.27.11.36.15.18.08.31.16.39.23.08.07.12.17.14.3.02.13,0,.26-.07.4-.08.16-.19.29-.34.39-.15.1-.33.14-.55.14,0,.07,0,.15.01.23,0,.08.01.13.01.15,0,.02,0,.03,0,.05l.05.6c.01.16.02.24.02.26.03.18.04.28.05.31,0,.03.02.06.03.08.01.02.05.04.1.07l-.08.18c-.18-.09-.31-.15-.38-.19-.09-.04-.19-.08-.28-.12,0-.03.01-.08.01-.14l-.04-.89c-.01-.26-.03-.46-.05-.61,0-.08-.02-.14-.05-.18l.05-.06c.14.07.25.1.34.1.09,0,.18-.05.28-.13.1-.08.17-.18.23-.3.06-.13.08-.24.07-.35-.01-.11-.05-.19-.11-.26-.04-.04-.12-.09-.25-.15-.06-.03-.11-.05-.17-.06-.03.05-.08.16-.16.33-.18.38-.31.64-.37.77-.09.2-.19.42-.29.65-.13.28-.19.45-.21.48-.03.08-.05.13-.05.16,0,.01,0,.03,0,.04,0,.01.02.03.04.04.02.02.09.05.2.1l-.08.18c-.19-.1-.39-.2-.6-.29-.18-.08-.35-.16-.51-.22l.08-.18c.13.05.22.08.25.08.02,0,.03,0,.04,0,.01,0,.03-.02.04-.05.03-.05.08-.13.13-.23l.29-.59.35-.76.19-.44c.08-.17.12-.28.12-.32,0-.02,0-.03,0-.05-.02-.03-.1-.08-.24-.16Z"/>
      <path class="cls-1" d="M31.08,60.39l-.08.18c-.12-.05-.19-.07-.22-.08-.03,0-.04,0-.06,0-.01,0-.03.01-.03.03-.02.02-.04.06-.08.13-.02.03-.05.1-.09.2-.15.34-.23.52-.25.54l-.36.83-.16.38c-.06.14-.1.24-.1.28,0,.02,0,.04,0,.05,0,.02.02.03.04.05.02.02.09.05.2.1l-.08.18c-.19-.09-.39-.19-.6-.28-.19-.08-.36-.15-.51-.2l.08-.18c.12.05.2.07.22.08.03,0,.05,0,.06,0,.01,0,.02-.01.03-.03.01-.01.04-.08.1-.19.08-.16.15-.31.21-.45l.38-.86c.12-.27.2-.45.23-.53.07-.18.11-.29.12-.34,0-.02,0-.04,0-.05,0-.01-.01-.03-.03-.04-.02-.02-.09-.05-.21-.11l.08-.18c.14.07.31.15.5.23.21.09.42.18.61.25Z"/>
      <path class="cls-1" d="M30.1,63.42l.07-.18c.14.04.22.06.25.06.02,0,.03,0,.05-.02.02-.01.03-.04.05-.07.04-.08.11-.25.22-.51.05-.13.14-.35.27-.67.11-.28.2-.54.29-.76.08-.22.12-.35.13-.4,0-.02,0-.04,0-.05,0-.01-.02-.03-.05-.05-.07-.05-.14-.08-.2-.11l.07-.18c.24.1.41.17.5.21.12.05.25.09.38.13v.48s0,.36,0,.36l.03,1.6c.23-.23.4-.41.52-.54l.46-.49c.26-.27.41-.44.47-.51.06-.06.13-.15.21-.25.15.07.25.11.29.13l.54.19-.07.18h-.02c-.12-.06-.2-.07-.25-.05-.05.02-.09.08-.13.18-.05.12-.08.2-.1.26l-.24.59-.29.74c-.07.18-.11.28-.12.32-.06.18-.09.29-.1.34,0,.02,0,.04,0,.06,0,.02.02.03.03.04.02.01.09.05.22.11l-.07.18-.57-.24-.56-.2.07-.18c.15.05.24.07.26.07.03,0,.05-.03.08-.08.03-.05.1-.22.22-.52l.59-1.53-.79.82-.39.41c-.1.11-.25.27-.44.47-.12.13-.21.23-.28.31l-.12-.05c0-.13,0-.32,0-.55,0-.4,0-.71-.01-.9l-.03-1.31-.4,1.03c-.07.17-.14.38-.23.62-.09.24-.14.37-.14.41,0,.03,0,.06,0,.08,0,.02.02.04.04.06.02.02.09.06.21.11l-.07.18c-.13-.06-.26-.12-.4-.17-.18-.07-.33-.12-.44-.15Z"/>
      <path class="cls-1" d="M34.73,62.03l.05-.18.59.19.25.07.25.07.07.02-.05.18c-.13-.04-.22-.05-.26-.03-.02,0-.04.03-.06.06-.04.08-.11.28-.2.58l-.15.5-.07.25c-.08.26-.12.43-.14.49-.03.14-.03.26-.01.35.02.1.07.18.15.26.08.08.2.14.34.19.17.05.32.06.44.02.12-.04.22-.11.3-.2.08-.1.16-.3.25-.6l.13-.44c.11-.38.18-.61.21-.69.05-.18.07-.29.07-.34,0-.03-.01-.05-.03-.06-.03-.04-.12-.08-.25-.12l.05-.18c.22.08.35.12.39.13.01,0,.03,0,.05.01l.41.11-.05.18c-.11-.03-.19-.04-.22-.03-.02,0-.04.02-.06.06-.02.03-.07.17-.16.43-.09.26-.15.46-.2.61l-.15.51c-.04.13-.09.26-.14.39-.06.13-.13.24-.2.33-.08.08-.17.15-.28.2-.11.05-.23.08-.37.09-.13,0-.28-.02-.44-.06-.19-.06-.35-.14-.49-.24-.1-.08-.18-.17-.24-.26-.05-.09-.09-.19-.1-.29-.01-.1-.01-.2,0-.28,0-.05.05-.19.12-.42l.13-.41.16-.55c.06-.2.11-.38.15-.55.02-.06.02-.11.02-.14,0-.02-.01-.04-.03-.07l-.23-.1Z"/>
      <path class="cls-1" d="M36.97,65.8l.03-.19c.14.01.23.02.26.01.02,0,.03-.01.04-.02.01-.02.03-.04.04-.08.03-.08.07-.26.13-.55.03-.14.07-.37.14-.71.06-.3.1-.57.14-.8.04-.23.06-.37.05-.42,0-.02,0-.04-.02-.05,0-.01-.03-.03-.06-.04-.08-.03-.15-.06-.22-.07l.03-.19c.26.06.43.1.53.12.13.02.26.04.39.06l.08.47.07.36.33,1.56c.18-.27.32-.48.41-.62l.36-.57c.2-.32.32-.51.37-.59.05-.07.1-.17.16-.28.16.04.27.07.31.07l.57.09-.03.19h-.03c-.13-.03-.21-.03-.25,0-.04.03-.07.1-.09.2-.02.12-.04.22-.05.28l-.12.62-.14.78c-.03.19-.05.3-.06.33-.03.19-.04.31-.04.35,0,.02,0,.04.01.05,0,.01.02.03.04.04.02.01.1.03.23.07l-.03.19-.6-.13-.59-.09.04-.19c.16.02.25.03.27.02.03-.01.05-.04.07-.1.02-.05.06-.23.12-.55l.3-1.61-.63.96-.31.48c-.08.13-.19.31-.34.55-.09.15-.16.26-.22.35l-.13-.02c-.02-.13-.05-.31-.1-.55-.08-.4-.14-.69-.18-.89l-.27-1.28-.2,1.09c-.03.18-.07.4-.11.65-.04.25-.06.39-.06.43,0,.03,0,.06.01.08,0,.02.02.03.05.05.03.02.1.04.23.07l-.04.19c-.14-.04-.28-.07-.43-.1-.19-.04-.35-.06-.46-.07Z"/>
      <path class="cls-1" d="M44.66,66.2l-.09.23c-.16.1-.3.16-.43.2-.13.04-.29.05-.48.05-.27,0-.51-.06-.72-.16-.16-.08-.3-.19-.41-.33-.11-.14-.2-.28-.26-.44-.09-.24-.13-.49-.13-.77,0-.47.15-.86.43-1.15.28-.3.67-.44,1.17-.43.17,0,.33.02.46.05.14.03.29.09.47.17v.03c-.01.07-.03.16-.04.27-.02.17-.04.33-.04.47h-.15c0-.17,0-.3-.01-.4-.08-.11-.18-.19-.28-.24-.11-.05-.24-.08-.41-.08-.3,0-.54.1-.72.32-.18.22-.28.53-.28.93,0,.24.02.45.08.63.06.18.14.33.23.45.1.12.2.21.3.26.14.07.31.11.5.12.13,0,.25-.01.37-.05.12-.03.24-.09.38-.17l.05.05Z"/>
      <path class="cls-1" d="M44.89,65.06c-.03-.27-.02-.51.02-.73.05-.21.13-.39.24-.55.11-.16.24-.28.39-.36.19-.1.4-.17.63-.19.23-.03.44-.01.64.04.15.04.28.11.4.21.12.1.21.2.28.31.07.11.13.23.17.36.04.13.08.28.09.45.03.28.02.55-.03.8-.04.19-.11.35-.21.51-.1.15-.22.27-.36.37-.19.12-.42.2-.69.23-.29.03-.54,0-.76-.1-.22-.1-.4-.26-.54-.48-.14-.22-.24-.51-.28-.87ZM45.46,64.86c.04.35.11.63.22.85.11.22.23.37.37.45.14.08.29.11.46.09.16-.02.3-.08.41-.18.12-.1.2-.27.24-.49.05-.22.05-.48.02-.79-.02-.21-.06-.4-.12-.57-.06-.17-.13-.31-.22-.42-.09-.11-.18-.2-.29-.25-.1-.05-.24-.07-.4-.05-.18.02-.34.09-.45.21-.12.12-.2.28-.23.49-.04.21-.04.43-.01.67Z"/>
      <path class="cls-1" d="M50.41,63.38l-.15.04s-.03-.12-.06-.21c-.02-.06-.04-.12-.06-.16-.04-.04-.08-.06-.13-.08-.1-.04-.2-.07-.32-.08-.11-.01-.24,0-.37.03-.31.08-.53.25-.66.52-.13.27-.15.61-.05,1,.1.43.29.75.55.96.26.21.53.28.81.21.08-.02.16-.05.24-.09.07-.04.14-.09.21-.15,0-.04-.02-.12-.05-.23-.02-.11-.04-.18-.05-.2-.03-.14-.06-.22-.08-.25-.01-.02-.03-.02-.06-.02-.05,0-.17.01-.36.04l-.04-.18.56-.13.56-.15.03.14c-.07.03-.11.07-.12.11,0,.02,0,.06,0,.13.04.17.06.29.08.36.03.11.06.22.1.34-.21.16-.39.27-.55.36-.16.08-.33.15-.5.19-.28.07-.54.07-.78.02-.17-.04-.32-.11-.46-.21-.14-.1-.25-.21-.34-.34-.14-.2-.24-.44-.31-.71-.06-.23-.08-.44-.06-.62.02-.18.06-.35.13-.51.07-.15.16-.28.27-.4.11-.11.24-.2.37-.27.13-.07.29-.13.46-.17.21-.05.41-.08.6-.08.19,0,.35.02.46.05l.03.04c0,.14.03.37.08.7Z"/>
      <path class="cls-1" d="M51.56,65.18c.14-.06.22-.1.23-.11.01-.01.02-.02.02-.04,0-.02,0-.05,0-.09-.01-.06-.05-.19-.12-.4-.04-.12-.09-.27-.16-.46l-.24-.68-.23-.61c-.04-.1-.07-.17-.08-.2-.02-.03-.03-.05-.05-.06-.02-.01-.04-.02-.07-.01-.03,0-.11.02-.24.05l-.06-.18c.16-.04.27-.08.34-.11l.26-.1.16-.07c.38.29.84.62,1.37.99.38.27.69.47.93.61l-.18-.49c-.27-.76-.44-1.2-.5-1.33-.02-.05-.05-.08-.07-.09-.04-.02-.14,0-.3.06l-.06-.18c.15-.04.29-.09.41-.13.12-.04.27-.1.45-.18l.06.18c-.15.06-.23.1-.25.13,0,0-.01.02,0,.04,0,.08.05.24.14.5.08.25.15.44.19.56.34.94.55,1.51.64,1.7l-.02.03c-.11.02-.22.04-.33.06-.57-.37-1.4-.94-2.48-1.7l.38,1.05c.08.22.16.45.26.68.06.16.11.26.13.29.01.02.02.03.04.03.02,0,.04,0,.07,0,.08-.02.14-.03.18-.05,0,0,.02,0,.03-.01l.06.17c-.23.08-.36.12-.39.13-.12.04-.27.1-.47.19l-.07-.18Z"/>
      <path class="cls-1" d="M53.97,62.86c-.11-.25-.18-.48-.19-.7-.02-.22,0-.42.07-.6.06-.18.15-.34.27-.46.15-.15.33-.28.54-.37.21-.09.42-.14.62-.15.15,0,.3.02.44.08.14.06.26.13.36.21.1.08.19.18.27.3.08.11.16.25.22.4.12.26.18.51.21.77.02.19,0,.37-.05.55-.05.18-.13.33-.24.46-.15.18-.34.32-.59.43-.26.12-.51.16-.75.13-.24-.03-.46-.13-.66-.3-.2-.17-.38-.42-.52-.74ZM54.45,62.5c.14.32.3.57.46.74.17.18.33.28.48.32.15.04.31.02.47-.05.15-.07.26-.17.34-.3.08-.13.11-.31.09-.54-.02-.23-.09-.48-.22-.76-.09-.19-.18-.36-.29-.5-.11-.14-.22-.26-.33-.34-.12-.08-.23-.13-.35-.15-.12-.02-.25,0-.4.07-.17.08-.29.19-.37.33-.08.15-.1.32-.08.53.03.21.09.42.19.65Z"/>
      <path class="cls-1" d="M58.08,60.08l-.14.07c-.08-.15-.14-.26-.18-.32-.06-.04-.15-.06-.26-.07-.11,0-.22.02-.33.07-.16.08-.25.18-.29.32-.04.13-.03.26.03.39.05.09.09.15.14.2.05.04.11.07.17.08.06.01.14,0,.24,0,.07-.02.18-.04.31-.08.13-.03.21-.05.25-.06.11-.02.2-.02.28,0,.08.01.14.04.2.07.06.03.12.09.18.16.06.07.12.15.16.25.08.17.13.34.13.5,0,.12-.02.24-.06.36-.04.12-.1.22-.16.31-.11.13-.25.25-.45.34-.14.07-.27.12-.4.14-.12.02-.27.03-.44.02-.04-.17-.14-.41-.29-.73l.14-.07c.05.1.11.22.2.35.08.06.2.1.33.11.14.01.27-.01.39-.07.11-.05.2-.12.26-.21.06-.09.09-.18.09-.28,0-.1-.03-.2-.08-.3-.04-.09-.09-.15-.15-.2-.06-.05-.12-.08-.2-.08-.08,0-.19,0-.36.03-.23.05-.39.08-.46.09-.12.01-.22,0-.31-.03-.09-.04-.18-.1-.25-.17-.07-.08-.14-.17-.19-.28-.07-.15-.12-.3-.12-.46,0-.15.01-.29.07-.4.05-.11.13-.21.22-.3.1-.08.2-.15.32-.21.12-.06.25-.1.37-.13.13-.03.24-.04.35-.03l.04.04c.03.1.06.19.09.27.03.09.08.2.15.34Z"/>
      <path class="cls-1" d="M61.63,60.44l.02.24c-.1.16-.19.29-.29.38-.1.09-.23.18-.4.26-.24.12-.48.19-.71.19-.18,0-.35-.03-.52-.1-.16-.07-.3-.16-.43-.27-.19-.17-.35-.37-.47-.62-.21-.42-.27-.83-.16-1.22.11-.39.39-.7.83-.93.15-.08.3-.13.43-.17.14-.04.3-.06.5-.07l.02.02c.01.07.04.16.08.26.06.16.12.3.18.44l-.13.07c-.08-.15-.14-.26-.2-.34-.12-.05-.24-.08-.36-.08-.12,0-.25.04-.4.12-.27.13-.43.34-.49.62-.06.28,0,.6.18.95.11.22.23.39.37.52.14.13.27.23.42.29.14.06.27.09.39.09.16,0,.32-.04.5-.13.12-.06.22-.13.31-.21.09-.08.17-.19.26-.33l.07.02Z"/>
      <path class="cls-1" d="M62,60.7l-.05-.11c.05-.07.09-.14.11-.2-.02-.06-.06-.15-.12-.28-.11-.24-.19-.41-.24-.51l-.45-.91s-.08-.17-.2-.39c-.08-.15-.13-.24-.16-.27-.01-.01-.03-.02-.04-.02-.04,0-.13.03-.27.09l-.08-.16.4-.2c.08-.04.15-.08.23-.11.16-.08.33-.17.52-.27l.34-.18s.13-.06.25-.12c.01,0,.03-.01.06-.01l.02.02.11.31s.05.12.13.3l-.13.07c-.08-.16-.13-.25-.16-.28-.01-.02-.03-.03-.04-.03-.02,0-.07,0-.15.04-.12.04-.24.09-.34.14-.1.05-.2.11-.3.17.06.16.15.36.27.6l.21.42c.08-.03.16-.07.25-.11.03-.01.12-.06.28-.15.06-.03.1-.06.1-.07,0-.01,0-.03,0-.05-.01-.06-.05-.15-.1-.27l.14-.07.21.45.23.44-.14.07c-.08-.16-.13-.25-.17-.28-.03-.02-.06-.02-.1-.01-.09.03-.19.07-.32.13-.11.06-.2.11-.27.15l.42.85c.05.09.09.17.13.24.1-.04.21-.09.33-.15.12-.06.23-.12.33-.18.1-.06.16-.11.17-.14,0,0,0-.03,0-.05-.01-.07-.05-.21-.12-.4l.14-.07c.11.28.2.5.29.68v.04c-.08.05-.18.1-.31.17l-.28.13c-.27.13-.46.22-.57.27-.03.01-.22.11-.57.3Z"/>
      <path class="cls-1" d="M62.79,57l-.08-.17s.12-.05.28-.12c.08-.03.19-.08.33-.15.12-.06.23-.11.31-.15.14-.07.26-.13.35-.17.18-.08.33-.13.43-.14.11-.01.21.02.32.09.11.07.19.17.26.31.08.17.1.34.08.51-.03.17-.11.34-.26.5.06.05.12.1.18.14.07.05.11.07.12.09.01.01.02.02.04.03l.49.35c.13.09.2.14.21.15.15.1.24.15.27.17.03.02.06.02.08.03.02,0,.06,0,.12-.03l.08.18c-.18.08-.31.13-.39.17-.09.04-.18.09-.27.13-.02-.03-.05-.06-.1-.1l-.7-.55c-.2-.16-.37-.28-.5-.37-.06-.04-.12-.07-.17-.09v-.08c.13-.06.23-.12.28-.19.05-.07.08-.17.08-.29,0-.12-.02-.25-.08-.37-.06-.12-.13-.22-.22-.28-.09-.06-.18-.09-.27-.09-.06,0-.15.03-.28.09-.06.03-.11.06-.16.09.02.05.07.16.14.34.17.39.28.65.34.78.09.21.19.42.3.65.13.28.21.44.23.48.04.07.07.12.09.14,0,0,.02.02.04.02.01,0,.03,0,.06,0,.03,0,.1-.03.21-.08l.08.18c-.2.08-.41.17-.61.26-.18.08-.35.16-.5.24l-.08-.18c.13-.07.2-.11.22-.13.01-.01.02-.02.02-.03,0-.01,0-.03-.01-.06-.02-.06-.05-.14-.09-.25l-.26-.61-.35-.76-.21-.43c-.08-.17-.13-.27-.16-.3-.01-.01-.03-.02-.04-.02-.04,0-.13.02-.27.07Z"/>
      <path class="cls-1" d="M66.47,58.59l-.04-.11c.06-.07.1-.13.13-.19-.02-.06-.05-.16-.09-.29-.08-.24-.15-.42-.19-.53l-.37-.95s-.07-.17-.16-.41c-.06-.16-.11-.25-.14-.28-.01-.01-.02-.02-.04-.02-.04,0-.13.02-.27.06l-.06-.16.41-.16c.08-.03.16-.06.24-.09.16-.06.34-.13.54-.22l.36-.15s.13-.05.26-.09c.01,0,.03,0,.06-.01l.02.02.08.32s.04.12.1.31l-.14.05c-.07-.16-.11-.26-.13-.3-.01-.02-.03-.03-.04-.03-.02,0-.07,0-.16.02-.12.03-.24.07-.35.11-.11.04-.21.09-.32.14.05.17.12.37.21.62l.17.43c.08-.02.17-.05.26-.09.03-.01.12-.05.29-.12.06-.03.1-.05.11-.06,0-.01.01-.03,0-.05,0-.06-.03-.15-.08-.28l.15-.06.17.47.19.46-.14.06c-.06-.16-.11-.26-.14-.29-.03-.02-.06-.03-.1-.02-.09.02-.2.05-.33.1-.12.05-.21.09-.28.13l.34.88c.04.1.07.18.1.25.1-.03.22-.07.35-.12.13-.05.24-.1.35-.15.1-.05.17-.09.18-.12,0,0,0-.02,0-.05,0-.08-.03-.21-.08-.41l.15-.06c.08.29.16.52.23.7v.04c-.09.04-.19.09-.33.14l-.29.1c-.29.1-.48.18-.59.22-.03.01-.23.09-.59.24Z"/>
      <path class="cls-1" d="M68.7,54.62l-.04-.18s.13-.03.3-.06c.08-.02.2-.04.35-.08.13-.03.24-.06.33-.09.15-.05.28-.08.38-.11.2-.05.34-.07.45-.06.11,0,.2.06.3.14.09.09.16.2.19.35.04.18.04.35-.02.52-.06.17-.17.32-.35.45.05.06.1.12.15.17.06.06.09.09.1.11,0,.01.02.03.03.04l.41.43c.11.12.17.18.18.19.13.12.21.19.23.21.03.02.05.03.08.04.02,0,.06,0,.12-.01l.05.19c-.19.04-.33.07-.42.09-.1.03-.2.05-.29.08-.01-.03-.04-.07-.08-.11l-.59-.67c-.17-.19-.31-.35-.42-.45-.06-.06-.1-.09-.15-.12v-.08c.15-.03.26-.08.33-.14.07-.06.11-.15.14-.27.02-.12.02-.25-.01-.38-.03-.13-.09-.24-.16-.32-.08-.08-.16-.12-.25-.14-.06,0-.15,0-.29.03-.06.02-.12.04-.17.06,0,.05.03.17.08.36.1.41.16.69.19.83.05.22.11.45.18.7.08.3.12.47.14.51.02.08.04.13.06.16,0,.01.02.02.03.03.01,0,.03.01.06.01.03,0,.1-.01.22-.04l.05.19c-.21.04-.43.09-.65.14-.19.05-.37.1-.53.15l-.05-.19c.14-.04.22-.07.25-.08.01,0,.02-.02.03-.03,0-.01,0-.03,0-.07,0-.06-.02-.15-.04-.26l-.14-.64-.2-.81-.12-.46c-.05-.18-.08-.29-.1-.32-.01-.02-.02-.03-.04-.03-.03-.01-.13,0-.28.02Z"/>
      <path class="cls-1" d="M72.04,56.89l-.02-.12c.07-.05.13-.1.17-.15,0-.06,0-.17-.02-.31-.02-.26-.04-.44-.05-.56l-.12-1.01s-.03-.18-.06-.44c-.02-.17-.05-.27-.06-.31,0-.01-.02-.02-.03-.03-.04-.01-.13-.02-.28,0l-.02-.17.44-.06c.09-.01.17-.02.25-.03.17-.02.37-.05.58-.08l.38-.06s.14-.01.28-.02c.01,0,.03,0,.06,0l.02.03v.33s.01.13.02.32l-.15.02c-.02-.18-.04-.28-.06-.32,0-.02-.02-.03-.03-.04-.02-.01-.07-.02-.16-.02-.13,0-.25,0-.37.02-.11.01-.23.03-.34.06,0,.17.02.39.05.65l.06.46c.09,0,.18,0,.27-.02.03,0,.13-.02.31-.05.07,0,.11-.02.12-.03.01-.01.02-.03.02-.05,0-.06,0-.15,0-.29l.15-.02.05.49.07.49-.15.02c-.02-.17-.04-.28-.07-.32-.02-.03-.05-.04-.09-.05-.09,0-.2,0-.34.02-.12.01-.23.03-.31.05l.11.94c.01.11.03.19.04.27.1,0,.23-.01.37-.03.14-.02.26-.04.38-.06.12-.02.18-.05.21-.07,0,0,.01-.02.02-.04.02-.07.02-.21.02-.42l.16-.02c0,.3.02.54.05.73l-.02.03c-.08.02-.2.04-.35.06l-.31.03c-.3.03-.51.05-.62.07-.03,0-.24.03-.63.09Z"/>
      <path class="cls-1" d="M74.21,53.65v-.18s.13,0,.31.02c.09,0,.21.01.36.01.13,0,.25,0,.34,0,.16,0,.29,0,.39,0,.2,0,.35.03.45.06.1.04.18.11.25.22.07.11.1.24.1.39,0,.18-.06.35-.15.49-.1.15-.25.26-.45.34.03.07.07.14.1.21.04.07.06.11.07.13,0,.02.01.03.02.04l.28.53c.08.14.12.22.12.23.09.15.15.24.17.27.02.03.04.05.06.06.02.01.06.02.12.02v.2c-.2,0-.34-.02-.43-.02-.1,0-.2,0-.3,0,0-.03-.02-.08-.04-.13l-.39-.8c-.11-.23-.21-.41-.29-.54-.04-.07-.08-.12-.12-.15l.02-.07c.15,0,.27,0,.35-.05.08-.04.15-.12.2-.23.06-.11.09-.23.09-.37,0-.14-.02-.25-.08-.35-.05-.09-.12-.16-.21-.2-.05-.02-.15-.04-.29-.04-.06,0-.12,0-.18.01,0,.05-.01.17-.02.36-.02.42-.03.71-.03.85,0,.23,0,.46-.01.72,0,.31,0,.49,0,.53,0,.08,0,.14.02.17,0,.01.01.02.02.03.01,0,.03.02.05.02.03,0,.1.01.22.02v.2c-.22-.02-.44-.03-.67-.03-.2,0-.38,0-.55,0v-.2c.15,0,.24,0,.26-.02.02,0,.03-.01.03-.02,0,0,.01-.03.02-.06.01-.06.02-.15.03-.27l.03-.66.02-.84v-.48c0-.19,0-.3-.01-.34,0-.02-.02-.03-.03-.04-.03-.02-.12-.04-.28-.05Z"/>
      <path class="cls-1" d="M77.07,53.74l.04-.18.6.15.25.05.25.05h.07s-.04.2-.04.2c-.13-.03-.22-.04-.26-.02-.02,0-.04.03-.06.07-.04.09-.09.29-.16.59l-.11.51-.06.26c-.06.27-.09.43-.1.5-.02.14-.02.26.01.35.03.1.09.18.17.25.09.07.2.13.35.16.17.04.32.03.44-.01.12-.05.21-.12.28-.22.07-.1.14-.31.21-.62l.1-.45c.09-.39.14-.62.16-.71.04-.18.05-.3.05-.34,0-.02-.01-.05-.03-.06-.03-.03-.12-.07-.26-.1l.04-.18c.22.06.36.1.4.11.01,0,.03,0,.05,0l.42.08-.04.18c-.12-.03-.19-.03-.23-.02-.02,0-.04.03-.05.06-.02.03-.06.18-.13.44-.07.26-.12.47-.15.62l-.11.52c-.03.13-.07.27-.12.4-.05.14-.11.25-.18.34-.07.09-.16.16-.27.22-.11.06-.23.1-.36.11-.13.01-.28,0-.44-.03-.19-.04-.36-.11-.51-.21-.11-.07-.19-.15-.25-.24-.06-.09-.1-.19-.12-.29-.02-.1-.02-.19-.01-.28,0-.05.03-.2.09-.43l.1-.42.13-.56c.05-.2.08-.39.12-.56.01-.07.01-.11,0-.15,0-.02-.01-.04-.03-.07l-.24-.09Z"/>
      <path class="cls-1" d="M78.94,57.12l.08-.17c.13.05.22.08.25.08.02,0,.03,0,.04-.01.02-.01.04-.04.06-.07.04-.07.13-.24.26-.5.06-.12.17-.34.31-.65.13-.28.24-.52.34-.73.1-.21.15-.34.16-.39,0-.02,0-.04,0-.05,0-.01-.02-.03-.04-.05-.07-.05-.13-.09-.19-.12l.08-.17c.23.12.4.2.49.25.12.06.24.11.36.15l-.04.48-.02.36-.08,1.6c.24-.21.43-.38.56-.5l.49-.46c.28-.25.45-.41.51-.47.06-.06.14-.14.23-.23.15.08.24.13.28.15l.52.23-.08.17h-.02c-.12-.07-.2-.09-.25-.07-.05.02-.09.07-.14.17-.05.11-.09.2-.12.26l-.28.57-.34.71c-.08.17-.13.28-.14.31-.07.18-.11.29-.13.33,0,.02,0,.04,0,.05,0,.02.01.03.03.05.01.01.08.06.21.13l-.08.17-.55-.28-.55-.24.08-.17c.15.06.23.09.26.09.03,0,.06-.03.09-.08.03-.05.12-.21.25-.5l.7-1.48-.85.77-.42.38c-.11.1-.27.25-.47.44-.12.12-.22.21-.3.29l-.12-.06c.01-.13.03-.32.04-.55.03-.4.04-.7.05-.9l.06-1.31-.47,1c-.08.17-.17.37-.28.6-.1.23-.16.36-.17.4,0,.03-.01.06,0,.08,0,.02.02.04.04.06.02.02.09.06.2.13l-.08.17c-.12-.07-.25-.14-.39-.2-.18-.08-.32-.14-.43-.18Z"/>
    </g>
    <path class="cls-1" d="M65.92,1.77c.1,2.11.41,9.42.41,18.36,0,10.89-.71,16.7-2.63,21.42-.93,2.29-2.1,4.02-3.81,5.61-1.54,1.43-3.57,2.84-7.01,4.84-2.64,1.54-4.74,2.57-6.43,3.16-1.53.53-2.44.6-3.07.6s-1.54-.07-3.06-.6c-1.69-.59-3.8-1.63-6.43-3.16-3.45-2.01-5.48-3.41-7.01-4.84-1.71-1.6-2.88-3.33-3.81-5.61-1.92-4.73-2.63-10.53-2.63-21.42,0-8.93.31-16.23.41-18.35h45.09M20.31.68c-.13,0-.26.03-.36.12-.1.09-.16.22-.17.35,0,.08-.44,8.36-.44,18.97s.74,16.96,2.71,21.83c2.01,4.94,5.1,7.38,11.28,10.98,5.92,3.45,8.39,3.91,10.04,3.91s4.13-.47,10.04-3.91c6.18-3.6,9.28-6.04,11.29-10.98,1.98-4.87,2.71-10.79,2.71-21.83s-.43-18.89-.44-18.97c0-.14-.07-.26-.17-.35-.1-.09-.23-.12-.37-.12,0,0-46,0-46.13,0Z"/>
    <g>
      <polygon class="cls-1" points="57.27 14.05 56.75 12.59 56.24 14.02 54.71 14.08 55.93 15.03 55.49 16.49 56.75 15.62 58.02 16.49 57.59 15.01 58.8 14.08 57.27 14.05"/>
      <polygon class="cls-1" points="55.48 22.28 56.64 23.36 56.53 21.78 58.1 21.54 56.79 20.64 57.58 19.27 56.06 19.73 55.48 18.26 54.9 19.73 53.38 19.27 54.17 20.64 52.86 21.54 54.43 21.78 54.31 23.36 55.48 22.28"/>
      <polygon class="cls-1" points="61.8 13.58 62.97 14.66 62.85 13.08 64.42 12.84 63.11 11.94 63.9 10.57 62.39 11.03 61.8 9.56 61.22 11.03 59.71 10.57 60.5 11.94 59.19 12.84 60.76 13.08 60.64 14.66 61.8 13.58"/>
      <polygon class="cls-1" points="56.15 7.65 57.31 8.73 57.19 7.14 58.76 6.9 57.45 6.01 58.24 4.63 56.73 5.1 56.15 3.62 55.56 5.1 54.05 4.63 54.84 6.01 53.53 6.9 55.1 7.14 54.98 8.73 56.15 7.65"/>
      <polygon class="cls-1" points="49.46 12.79 50.63 13.87 50.51 12.29 52.08 12.05 50.77 11.15 51.56 9.77 50.04 10.24 49.46 8.76 48.88 10.24 47.36 9.77 48.15 11.15 46.84 12.05 48.41 12.29 48.3 13.87 49.46 12.79"/>
    </g>
    <g>
      <path class="cls-1" d="M55.54,26.05c-6.41-3.07-10.72-5.24-12.28-5.24s-5.61,2.18-12.03,5.24c-6.41,3.07-8.6,3.73-8.6,5.07s1.57.7,2.05.56c.48-.14,16.85-5.44,18.58-5.44s18.35,5.3,18.83,5.44c.48.14,2.05.78,2.05-.56s-2.19-2-8.6-5.07Z"/>
      <path class="cls-1" d="M59.22,36.07c-2.78.93-4.99,2.97-8.07,2.39-2.7-.51-4.94-2.84-7.78-2.8-3.11.04-5.45,2.71-8.49,2.97-2.99.25-5.32-2.17-8.12-2.74-1.26-.26-2.37-.08-3.42.28.21,1.04.46,2,.75,2.9.83-.2,1.71-.26,2.68-.06,2.79.57,5.12,2.99,8.12,2.74,3.05-.25,5.39-2.93,8.49-2.97,2.84-.04,5.08,2.3,7.78,2.8,3.08.58,5.29-1.45,8.07-2.39,1.24-.42,2.35-.38,3.41-.12.29-.9.53-1.85.75-2.89-1.28-.44-2.62-.62-4.16-.11Z"/>
      <path class="cls-1" d="M59.22,42.3c-2.78.93-4.99,2.97-8.07,2.39-2.7-.51-4.94-2.84-7.78-2.8-3.11.04-5.45,2.71-8.49,2.97-2.99.25-5.32-2.17-8.12-2.74-.53-.11-1.03-.14-1.51-.12.63,1.27,1.42,2.37,2.38,3.36.03.03.06.05.1.07.31.15,1.93.94,2.74,1.34,1.38.69,2.82,1.33,4.4,1.2,3.05-.25,5.39-2.93,8.49-2.97,2.84-.04,5.08,2.3,7.78,2.8,1.89.35,3.47-.28,5.04-1.04.81-.39,2.55-1.25,2.87-1.41.04-.02.07-.04.1-.07.92-.96,1.7-2.06,2.31-3.28-.71-.05-1.45.04-2.25.3Z"/>
      <path class="cls-1" d="M35.73,50.95c1.24.7,2.34,1.27,3.32,1.72,1.38-.72,2.75-1.42,4.33-1.44,1.57-.02,2.97.69,4.36,1.41.99-.45,2.1-1.03,3.35-1.74-2.67-.54-4.89-2.82-7.7-2.79-2.81.04-5,2.23-7.65,2.83Z"/>
      <path class="cls-1" d="M53.41,32.22c-3.29-1-5.53-1.66-7.07-2.09-1.46-.41-2.14-.56-2.6-.68-.13-.03-.36-.08-.44-.09-.1.02-.24.05-.43.09-.38.09-.96.23-1.86.48-1.52.42-3.95,1.13-7.81,2.32-1.24.38-2.63.82-4.18,1.31,1.9.9,3.71,2.12,5.88,1.94,3.05-.25,5.39-2.93,8.49-2.97,2.84-.04,5.08,2.3,7.78,2.8,2.51.47,4.44-.79,6.57-1.78-1.62-.51-3.07-.95-4.35-1.34Z"/>
    </g>
  </g>
</svg>